<?xml version="1.0" encoding="utf-8"?>
<!-- Generator: Adobe Illustrator 24.3.0, SVG Export Plug-In . SVG Version: 6.00 Build 0)  -->
<svg version="1.1" id="pina-logo" xmlns="http://www.w3.org/2000/svg" xmlns:xlink="http://www.w3.org/1999/xlink" x="0px" y="0px"
	 viewBox="0 0 2416.1 495.3" style="enable-background:new 0 0 2416.1 495.3;" xml:space="preserve">
<style type="text/css">
	.st0{display:none;fill:#43C0EA;}
	.st1{fill:#43C0EA;}
	.st2{fill:#0F4760;}
	.st3{display:none;enable-background:new    ;}
	.st4{display:inline;fill:#FFFFFF;}
</style>
<rect x="-624.9" y="0" class="st0" width="3041" height="495.3"/>
<path class="st1" d="M399.4,239.7c0,39.4-33.8,74.6-74.6,74.6h-23.1v-28.9h20.5c25.2,0,45.7-20.4,45.7-45.6l0,0h-96.8
	c-1.4,0-2.8,0-4.2,0.1c-0.9,0-1.8,0.1-2.8,0.2l-2,0.2c-41.7,4.6-73.3,39.8-73.3,81.7v68.8h112.9v-38.1h23.1
	c62.3,0,112.9-50.5,112.9-112.9l0,0L399.4,239.7z"/>
<path class="st2" d="M437.8,216.6c0-62.3-50.5-112.9-112.9-112.9l0,0h-136v112.9h37.5v-75.3h98.5c41.6,0,75.4,33.7,75.4,75.4l0,0
	L437.8,216.6L437.8,216.6z"/>
<path class="st2" d="M1033,321.9c5.3,2.9,9.7,7.4,12.4,12.8c2.9,5.7,4.3,12,4.2,18.4c0.1,6.5-1.3,12.9-4.2,18.7
	c-2.7,5.4-7.1,9.9-12.4,12.8c-5.5,3.1-12.1,4.6-20,4.6h-27.4v-72h27.5C1020.9,317.3,1027.5,318.8,1033,321.9z M1029.4,371.9
	c3.9-4.6,5.8-10.9,5.8-18.7c0-7.7-1.9-13.9-5.8-18.6c-3.9-4.7-9.3-7-16.3-7H1000v51.3h13.1C1020.1,378.9,1025.5,376.5,1029.4,371.9z
	"/>
<path class="st2" d="M1076.3,317.3h14.4v72h-14.4V317.3z"/>
<path class="st2" d="M1181,354.6v30.7c-3.6,1.7-7.4,3-11.4,3.8c-4.6,1-9.4,1.5-14.1,1.5c-8.3,0-15.4-1.7-21.1-5.1
	c-5.5-3.2-10-7.9-12.9-13.7c-2.9-5.8-4.4-12.2-4.3-18.7c-0.1-6.5,1.5-12.8,4.5-18.5c3.1-5.7,7.7-10.4,13.4-13.5
	c5.9-3.4,13.1-5.1,21.5-5.1c4.2,0,8.5,0.6,12.6,1.8c3.6,1.1,7.1,2.8,10.1,5l-3.8,9.9c-2.6-1.9-5.4-3.3-8.4-4.3
	c-3.4-1.2-6.9-1.7-10.4-1.7c-4.7-0.1-9.4,1.1-13.5,3.5c-3.7,2.3-6.7,5.6-8.6,9.6c-2,4.3-3,8.9-2.9,13.6c-0.1,4.8,0.9,9.5,2.8,13.8
	c1.7,3.9,4.6,7.3,8.2,9.6c3.9,2.4,8.4,3.6,13,3.5c3.9,0,7.7-0.4,11.5-1.2v-24.4L1181,354.6L1181,354.6z"/>
<path class="st2" d="M1208.5,317.3h14.4v72h-14.4V317.3z"/>
<path class="st2" d="M1305.2,327.6h-21.9v61.7h-14.4v-61.7H1247v-10.3h58.3L1305.2,327.6z"/>
<path class="st2" d="M1366.2,369.7h-26.7l-6.8,19.5h-14.5l27.8-73h13.8l27.8,73H1373L1366.2,369.7z M1362.6,359.6l-9.8-28.2
	l-9.8,28.2H1362.6z"/>
<path class="st2" d="M1458.4,379v10.3h-46.5v-72h14.4V379H1458.4z"/>
<path class="st2" d="M1513,384.8l3.5-10.1c3.3,1.7,6.8,3.1,10.4,4.1c3.5,0.9,7.2,1.3,10.8,1.3c3.8,0.1,7.5-0.8,10.8-2.6
	c2.8-1.5,4.4-4.5,4.3-7.6c0-2-0.7-3.8-2.1-5.2c-1.5-1.5-3.2-2.7-5.1-3.6c-2.1-1-4.9-2.1-8.5-3.3c-3.8-1.4-7.6-2.9-11.3-4.7
	c-2.9-1.4-5.4-3.5-7.4-6c-2.1-2.8-3.2-6.3-3.1-9.8c0-6.7,2.5-11.9,7.5-15.6s11.6-5.6,19.8-5.6c7.6-0.2,15.1,1.8,21.6,5.7l-3.5,10
	c-5.3-3.2-11.4-5-17.7-5.1c-3.4-0.1-6.8,0.7-9.8,2.5c-2.5,1.6-3.9,4.3-3.8,7.2c0,1.8,0.7,3.5,2,4.8c1.4,1.4,3.1,2.5,4.9,3.3
	c1.9,0.9,4.7,2,8.2,3.3c4,1.4,7.9,3.1,11.6,4.9c3,1.5,5.6,3.6,7.6,6.3c2.2,2.9,3.3,6.5,3.2,10.1c0,6.8-2.6,12.1-7.7,15.9
	c-5.2,3.8-12.3,5.8-21.4,5.8C1527.9,390.7,1519.6,388.7,1513,384.8z"/>
<path class="st2" d="M1604.7,385.7c-5.4-3.2-9.8-7.9-12.6-13.5c-5.7-11.9-5.7-25.7-0.1-37.6c2.8-5.6,7.2-10.3,12.6-13.5
	c5.6-3.3,12.4-5,20.3-5s14.6,1.7,20.2,5c5.4,3.2,9.9,7.9,12.7,13.5c2.9,5.8,4.4,12.2,4.3,18.7c0.1,6.6-1.4,13-4.3,18.9
	c-2.8,5.6-7.2,10.3-12.7,13.5c-5.6,3.3-12.3,5-20.2,5S1610.3,389,1604.7,385.7z M1637.3,376.6c3.5-2.4,6.2-5.7,7.8-9.6
	c1.9-4.4,2.8-9.1,2.7-13.8c0.1-4.7-0.8-9.3-2.7-13.7c-1.7-3.9-4.4-7.2-7.8-9.5c-7.5-4.7-17-4.7-24.6,0c-3.5,2.4-6.2,5.7-7.8,9.5
	c-1.8,4.3-2.7,9-2.6,13.7c-0.1,4.7,0.8,9.4,2.6,13.8c1.6,3.9,4.3,7.2,7.8,9.6C1620.3,381.3,1629.8,381.3,1637.3,376.6L1637.3,376.6z
	"/>
<path class="st2" d="M1735.3,379v10.3h-46.5v-72h14.4V379H1735.3z"/>
<path class="st2" d="M1765.8,382.8c-5.4-5.3-8.2-12.4-8.2-21.4v-44.1h14.4v44c0,6.3,1.5,11,4.4,14.1s7.2,4.7,12.8,4.7
	c5.5,0,9.7-1.6,12.7-4.7c2.9-3.1,4.4-7.9,4.4-14.1v-44h14.4v44c0,9.1-2.7,16.3-8.1,21.6c-5.4,5.3-13.2,7.9-23.4,7.9
	C1779.1,390.7,1771.3,388.1,1765.8,382.8z"/>
<path class="st2" d="M1901.9,327.6H1880v61.7h-14.4v-61.7h-21.9v-10.3h58.3L1901.9,327.6z"/>
<path class="st2" d="M1926.1,317.3h14.4v72h-14.4V317.3z"/>
<path class="st2" d="M1983.9,385.7c-5.4-3.2-9.8-7.9-12.7-13.5c-5.7-11.9-5.7-25.7-0.1-37.6c2.8-5.6,7.2-10.3,12.7-13.5
	c5.6-3.3,12.4-5,20.3-5s14.6,1.7,20.2,5c5.5,3.2,9.9,7.9,12.7,13.5c2.9,5.8,4.4,12.2,4.3,18.7c0.1,6.6-1.4,13-4.3,18.9
	c-2.8,5.6-7.2,10.3-12.6,13.5c-5.6,3.3-12.3,5-20.2,5S1989.5,389,1983.9,385.7z M2016.5,376.6c3.5-2.4,6.2-5.7,7.8-9.6
	c1.9-4.4,2.8-9,2.7-13.8c0.1-4.7-0.8-9.4-2.7-13.7c-1.7-3.9-4.4-7.2-7.8-9.5c-7.5-4.7-17-4.7-24.6,0c-3.5,2.4-6.2,5.7-7.8,9.5
	c-1.8,4.3-2.7,9-2.6,13.7c-0.1,4.7,0.8,9.4,2.6,13.8c1.6,3.9,4.3,7.2,7.8,9.6C1999.4,381.3,2008.9,381.3,2016.5,376.6L2016.5,376.6z
	"/>
<path class="st2" d="M2131,317.3v72l-12.8,0.1l-36.9-50.8l1.1,24.3v26.5H2068v-72h12.8l36.9,50.7l-1.1-25.7v-25h14.4V317.3z"/>
<path class="st2" d="M2157,384.8l3.5-10.1c3.3,1.7,6.8,3.1,10.4,4.1c3.5,0.9,7.2,1.3,10.8,1.3c3.8,0.1,7.5-0.8,10.8-2.6
	c2.8-1.5,4.4-4.5,4.4-7.6c0-2-0.7-3.8-2.1-5.2c-1.5-1.5-3.2-2.7-5.1-3.6c-2.1-1-4.9-2.1-8.5-3.3c-3.8-1.4-7.6-2.9-11.3-4.7
	c-2.9-1.4-5.4-3.5-7.4-6c-2.1-2.8-3.2-6.3-3.1-9.8c0-6.7,2.5-11.9,7.5-15.6s11.6-5.6,19.8-5.6c7.6-0.2,15.1,1.8,21.6,5.7l-3.5,10
	c-5.3-3.2-11.4-5-17.7-5.1c-3.4-0.1-6.8,0.7-9.7,2.5c-2.4,1.5-3.9,4.2-3.8,7.1c0,1.8,0.7,3.5,2,4.8c1.4,1.4,3,2.5,4.9,3.3
	c1.9,0.9,4.7,2,8.2,3.3c4,1.4,7.9,3.1,11.6,4.9c3,1.5,5.6,3.6,7.6,6.3c2.2,2.9,3.3,6.5,3.2,10.1c0,6.8-2.6,12.1-7.7,15.9
	s-12.3,5.8-21.4,5.8C2171.9,390.7,2163.6,388.7,2157,384.8z"/>
<path class="st2" d="M760.1,277.4c-21,0-29.1,5.7-36,13.2V281h-35.2v108.7h35.2v-59.4c0-17.6,8.6-24.9,21-24.9
	c14.8,0,19.8,5.2,19.8,20v64.4h35.2v-78.4C800.2,292.8,784.7,277.4,760.1,277.4z"/>
<rect x="627.4" y="281" class="st2" width="35.2" height="108.7"/>
<rect x="627.4" y="239.8" class="st2" width="35.2" height="26.1"/>
<path class="st2" d="M555.7,239.8H478v150h37.3v-51.5h40.3c33.1,0,50.5-22.1,50.5-49.3C606.2,261.9,587.9,239.8,555.7,239.8z
	 M550.8,309.3h-35.4v-40.5h35.4c11.7,0,20.2,6.1,20.2,20.2S562.5,309.3,550.8,309.3L550.8,309.3z"/>
<path class="st2" d="M928,375.6v-57.7c0-22.4-11.1-40.5-49-40.5c-29.3,0-55.1,9.8-55.1,39h30.7c1.8-7.3,7.8-14,19.9-14
	c13.9,0,18.2,5.1,18.2,11.9s-6.9,12.7-37.5,15.6c-26,2.5-35.4,14.4-35.4,32.7c0,14,9.4,30.6,35.9,30.6c32.8,0,37-13.2,37-13.2
	c0.7,3.3,1.7,6.6,3.2,9.6h35.2C929.1,385.3,928.1,380.5,928,375.6z M892.7,351.2c0,14.8-11.3,20.9-21.8,20.9c-11,0-17-4.6-17-13.7
	c0-16.6,23.3-10.5,38.8-18.9V351.2z"/>
<g class="st3">
	<path class="st4" d="M-412.2,323.3h21.3c7.7,0,13.8,1.6,18.3,4.7c4.5,3.2,6.8,8.3,6.8,15.5c0,7-2.3,12.3-6.9,15.9
		s-10.5,5.4-17.8,5.4h-8.3v22.3h-13.4V323.3L-412.2,323.3z M-391.4,354.2c8.3,0,12.5-3.5,12.5-10.6c0-3.4-1.1-5.8-3.2-7.3
		c-2.1-1.5-5.4-2.2-9.7-2.2h-7v20.2h7.4V354.2z"/>
	<path class="st4" d="M-346.7,385.2c-3.5-2-6.4-4.9-8.5-8.8c-2.1-3.8-3.2-8.3-3.2-13.5s1.1-9.7,3.2-13.6c2.1-3.8,5-6.8,8.5-8.8
		s7.4-3,11.6-3c4.1,0,7.9,1,11.5,3s6.4,5,8.6,8.8c2.1,3.9,3.2,8.4,3.2,13.5s-1.1,9.6-3.2,13.5c-2.1,3.8-5,6.8-8.6,8.8s-7.4,3-11.5,3
		C-339.3,388.2-343.1,387.2-346.7,385.2z M-328,373.6c1.7-2.6,2.5-6.1,2.5-10.6s-0.8-8-2.5-10.6s-4.1-3.9-7.1-3.9
		c-3.1,0-5.5,1.3-7.2,3.9s-2.5,6.1-2.5,10.6s0.8,8,2.5,10.6s4,3.9,7.2,3.9C-332.1,377.4-329.7,376.1-328,373.6z"/>
	<path class="st4" d="M-305.8,338.8h13.3l5.1,23.2c0.1,0.3,0.6,3.3,1.5,9c0.1,1.2,0.4,2.9,0.8,5.3h0.4c1.1-6.3,2.1-11.1,2.9-14.2
		l5.7-23.2h11.7l5.8,23.2c1,4.4,1.9,8.5,2.6,12.3l0.4,2h0.4l1.2-6.9c0.1-0.8,0.3-1.8,0.4-3c0.2-1.2,0.4-2.7,0.7-4.3l5-23.2h12.4
		l-11.8,48.3h-15.6l-4.9-20.4c-1.2-6.4-2.1-11.1-2.6-14.1h-0.4c-1,6.2-1.9,10.9-2.6,14.2l-4.6,20.3h-15.3L-305.8,338.8z"/>
	<path class="st4" d="M-187.3,366.8h-29.9c0.6,3.8,2.2,6.7,4.7,8.5s5.4,2.7,8.7,2.7c3.4,0,7-1.1,10.7-3.2l4.4,8.1
		c-2.4,1.7-5.1,3-8.1,4c-3,0.9-5.9,1.4-8.8,1.4c-4.6,0-8.7-1-12.3-3c-3.7-2-6.6-4.9-8.7-8.8c-2.1-3.8-3.2-8.3-3.2-13.5
		c0-5.1,1.1-9.5,3.2-13.4c2.1-3.8,4.9-6.8,8.3-8.9s7.1-3.1,11-3.1c6.6,0,11.6,2.1,15.1,6.4s5.3,9.8,5.3,16.7
		C-186.7,363.2-186.9,365.2-187.3,366.8z M-198.1,357.9c0-3.1-0.7-5.6-2.1-7.4s-3.6-2.7-6.5-2.7c-2.4,0-4.5,0.8-6.4,2.5
		s-3.1,4.2-3.8,7.6H-198.1z"/>
	<path class="st4" d="M-176.5,338.8h10.8l1,8.5h0.4c1.7-3.1,3.8-5.5,6.2-7.2c2.4-1.7,4.9-2.5,7.5-2.5c2.3,0,4.2,0.3,5.7,1l-2.2,11.5
		c-0.2-0.1-0.8-0.2-1.8-0.4c-1-0.2-2.1-0.3-3.3-0.3c-2.1,0-4.1,0.7-6,2.2c-2,1.5-3.6,3.8-4.9,7v28.5h-13.3v-48.3L-176.5,338.8
		L-176.5,338.8z"/>
	<path class="st4" d="M-99.1,366.8H-129c0.6,3.8,2.2,6.7,4.7,8.5s5.4,2.7,8.7,2.7c3.4,0,7-1.1,10.7-3.2l4.4,8.1
		c-2.4,1.7-5.1,3-8.1,4c-3,0.9-5.9,1.4-8.8,1.4c-4.6,0-8.7-1-12.3-3c-3.7-2-6.6-4.9-8.7-8.8c-2.1-3.8-3.2-8.3-3.2-13.5
		c0-5.1,1.1-9.5,3.2-13.4c2.1-3.8,4.9-6.8,8.3-8.9s7.1-3.1,11-3.1c6.6,0,11.6,2.1,15.1,6.4s5.3,9.8,5.3,16.7
		C-98.5,363.2-98.7,365.2-99.1,366.8z M-109.9,357.9c0-3.1-0.7-5.6-2.1-7.4c-1.4-1.8-3.6-2.7-6.5-2.7c-2.4,0-4.5,0.8-6.4,2.5
		s-3.1,4.2-3.8,7.6H-109.9z"/>
	<path class="st4" d="M-85.6,381.5c-3.5-4.5-5.3-10.7-5.3-18.5c0-5.1,0.9-9.5,2.8-13.4c1.9-3.8,4.4-6.8,7.5-8.9s6.4-3.1,9.8-3.1
		c2.5,0,4.7,0.4,6.5,1.3c1.8,0.8,3.7,2.1,5.6,3.9l-0.5-7.5v-16.8h13.4v68.6h-10.9l-1-5H-58c-1.8,1.8-3.9,3.3-6.2,4.4s-4.6,1.7-7,1.7
		C-77.3,388.2-82.1,386-85.6,381.5z M-63.2,376.2c1.4-0.7,2.7-1.9,4-3.6v-20.7c-2.5-2.3-5.3-3.4-8.6-3.4c-2.7,0-4.9,1.2-6.7,3.7
		s-2.7,6-2.7,10.5c0,4.8,0.8,8.4,2.4,10.9c1.6,2.4,4,3.7,7,3.7C-66.1,377.3-64.6,376.9-63.2,376.2z"/>
	<path class="st4" d="M4.9,386.6c-2.2-1.1-4.2-2.6-6.2-4.7h-0.4l-1.1,5.2h-10.4v-68.6H0.1v17.1l-0.3,7.6c2-1.7,4.1-3,6.3-4.1
		c2.2-1,4.5-1.5,6.8-1.5c5.9,0,10.5,2.2,13.9,6.6s5.1,10.4,5.1,17.9c0,5.3-0.9,10-2.8,14c-1.9,4-4.4,7-7.5,9.1s-6.5,3.1-10.1,3.1
		C9.3,388.2,7.1,387.7,4.9,386.6z M15.5,373.5c1.8-2.5,2.7-6.3,2.7-11.2c0-9.2-3-13.8-9.1-13.8c-3,0-6,1.6-9.1,4.7v20.7
		c2.5,2.3,5.3,3.4,8.4,3.4C11.3,377.3,13.7,376,15.5,373.5z"/>
	<path class="st4" d="M40.4,405.3l2.4-10.2c1.4,0.5,2.5,0.7,3.3,0.7c4.3,0,7.2-2.3,8.8-7l0.8-2.7L37,338.9h13.5l7.3,21.8
		c0.8,2.3,1.7,5.3,2.7,9.1c0.5,1.8,0.9,3.3,1.3,4.6h0.4c0.8-3.7,2-8.3,3.4-13.7l6.3-21.8h12.8l-17,49.4c-2.3,6.2-5,10.8-8.1,13.8
		c-3.1,2.9-7.2,4.4-12.5,4.4C44.8,406.3,42.5,406,40.4,405.3z"/>
</g>
</svg>
