<?xml version="1.0" encoding="utf-8"?>
<!-- Generator: Adobe Illustrator 24.3.0, SVG Export Plug-In . SVG Version: 6.00 Build 0)  -->
<svg version="1.1" id="Layer_1" xmlns="http://www.w3.org/2000/svg" xmlns:xlink="http://www.w3.org/1999/xlink" x="0px" y="0px"
	 viewBox="0 0 2334 354" style="enable-background:new 0 0 2334 354;" xml:space="preserve">
<style type="text/css">
	.st0{fill:#44C1EB;}
	.st1{fill:#114761;}
</style>
<path class="st0" d="M253,166.9c0,39.4-33.8,74.6-74.6,74.6h-23.1v-28.9h20.5c25.2,0,45.7-20.4,45.7-45.7h-96.8
	c-1.4,0-2.8,0-4.2,0.1c-0.9,0-1.8,0.1-2.8,0.2c-0.7,0.1-1.3,0.1-2,0.2c-41.2,4.5-73.2,39.4-73.2,81.7v68.8h112.9v-38.2v0h23.1
	c62.3,0,112.9-50.5,112.9-112.9H253z"/>
<path class="st1" d="M291.3,143.8c0-62.3-50.5-112.9-112.9-112.9h-136v112.9h37.5V68.4l98.5,0c41.6,0,75.4,33.7,75.4,75.4v0H291.3z"
	/>
<path class="st1" d="M1080.6,249.6c5.7,3.2,9.9,7.6,12.8,13.2c2.9,5.6,4.3,11.9,4.3,18.9c0,7.2-1.4,13.6-4.3,19.2
	c-2.9,5.6-7.1,10-12.7,13.2c-5.6,3.2-12.4,4.7-20.5,4.7h-28.3v-73.9h28.3C1068.1,244.8,1074.9,246.4,1080.6,249.6z M1076.9,301
	c4-4.7,6-11.1,6-19.2c0-7.9-2-14.3-6-19.1c-4-4.8-9.6-7.2-16.7-7.2h-13.5v52.6h13.5C1067.3,308.1,1072.9,305.7,1076.9,301z"/>
<path class="st1" d="M1124.9,244.8h14.8v73.9h-14.8V244.8z"/>
<path class="st1" d="M1232.4,283.2v31.5c-3.2,1.6-7.1,2.9-11.7,3.9c-4.6,1-9.4,1.5-14.5,1.5c-8.6,0-15.8-1.8-21.7-5.3
	c-5.9-3.5-10.3-8.2-13.3-14c-2.9-5.8-4.4-12.2-4.4-19.2c0-6.9,1.5-13.2,4.6-19c3.1-5.8,7.7-10.4,13.8-13.9
	c6.1-3.5,13.4-5.2,22.1-5.2c4.6,0,8.9,0.6,12.9,1.8c4,1.2,7.5,2.9,10.4,5.1l-3.9,10.1c-2.5-1.8-5.3-3.3-8.6-4.5
	c-3.3-1.2-6.9-1.7-10.7-1.7c-5.4,0-10,1.2-13.9,3.6c-3.9,2.4-6.8,5.7-8.8,9.8c-2,4.2-3,8.8-3,14c0,5.3,0.9,10,2.8,14.2
	c1.9,4.2,4.7,7.4,8.4,9.8c3.7,2.4,8.2,3.6,13.4,3.6c3.5,0,7.5-0.4,11.8-1.2v-25H1232.4z"/>
<path class="st1" d="M1260.7,244.8h14.8v73.9h-14.8V244.8z"/>
<path class="st1" d="M1359.9,255.5h-22.5v63.3h-14.8v-63.3h-22.5v-10.7h59.8V255.5z"/>
<path class="st1" d="M1422.5,298.7h-27.4l-7,20h-14.9l28.5-74.9h14.1l28.6,74.9h-15L1422.5,298.7z M1418.8,288.3l-10-28.9
	l-10.1,28.9H1418.8z"/>
<path class="st1" d="M1517.1,308.2v10.5h-47.7v-73.9h14.8v63.4H1517.1z"/>
<path class="st1" d="M1573.1,314.2l3.6-10.3c3.6,1.9,7.2,3.3,10.7,4.2c3.5,0.9,7.2,1.4,11.1,1.4c4.4,0,8.1-0.9,11.1-2.7
	c3-1.8,4.5-4.4,4.5-7.8c0-2.1-0.7-3.9-2.1-5.4c-1.4-1.5-3.2-2.7-5.3-3.7c-2.1-1-5-2.1-8.7-3.4c-4.8-1.7-8.6-3.4-11.6-4.8
	c-2.9-1.5-5.5-3.5-7.6-6.2c-2.1-2.6-3.2-6-3.2-10.1c0-6.9,2.6-12.2,7.7-16c5.1-3.8,11.9-5.7,20.3-5.7c8.4,0,15.8,2,22.2,5.9
	l-3.6,10.2c-6-3.5-12.1-5.2-18.2-5.2c-4.1,0-7.4,0.9-10,2.6c-2.6,1.7-3.9,4.2-3.9,7.4c0,1.9,0.7,3.5,2,4.9c1.3,1.4,3,2.5,5,3.4
	c2,0.9,4.8,2,8.4,3.4c4.9,1.8,8.9,3.5,12,5.1c3,1.6,5.7,3.7,7.8,6.4c2.2,2.7,3.3,6.2,3.3,10.4c0,7-2.6,12.4-7.9,16.4
	c-5.3,4-12.6,5.9-22,5.9C1588.4,320.3,1579.9,318.2,1573.1,314.2z"/>
<path class="st1" d="M1667.3,315.1c-5.7-3.4-10.1-8.1-13-13.9c-2.9-5.8-4.4-12.3-4.4-19.3c0-7.1,1.4-13.5,4.3-19.3
	c2.9-5.8,7.2-10.4,13-13.9c5.8-3.4,12.7-5.2,20.8-5.2c8,0,14.9,1.7,20.7,5.2c5.8,3.4,10.1,8.1,13,13.9c2.9,5.8,4.4,12.2,4.4,19.2
	c0,7.1-1.5,13.6-4.4,19.4c-2.9,5.8-7.3,10.5-13,13.9c-5.7,3.4-12.6,5.2-20.8,5.2C1679.9,320.3,1673,318.5,1667.3,315.1z
	 M1700.7,305.8c3.5-2.4,6.2-5.7,8-9.8c1.8-4.2,2.8-8.9,2.8-14.2c0-5.2-0.9-9.9-2.8-14c-1.8-4.1-4.5-7.4-8-9.8
	c-3.5-2.4-7.7-3.6-12.6-3.6c-4.9,0-9.1,1.2-12.7,3.6c-3.5,2.4-6.2,5.7-8,9.8c-1.8,4.1-2.7,8.8-2.7,14c0,5.3,0.9,10,2.7,14.2
	c1.8,4.2,4.5,7.4,8,9.8c3.5,2.4,7.7,3.6,12.7,3.6C1693,309.4,1697.2,308.2,1700.7,305.8z"/>
<path class="st1" d="M1801.3,308.2v10.5h-47.7v-73.9h14.8v63.4H1801.3z"/>
<path class="st1" d="M1832.6,312.2c-5.6-5.4-8.4-12.7-8.4-22v-45.3h14.8V290c0,6.5,1.5,11.3,4.5,14.5c3,3.2,7.4,4.8,13.1,4.8
	c5.7,0,10-1.6,13-4.8c3-3.2,4.5-8.1,4.5-14.5v-45.2h14.8v45.1c0,9.3-2.8,16.7-8.3,22.2c-5.5,5.4-13.5,8.2-24,8.2
	S1838.2,317.6,1832.6,312.2z"/>
<path class="st1" d="M1972.3,255.5h-22.5v63.3H1935v-63.3h-22.5v-10.7h59.8V255.5z"/>
<path class="st1" d="M1997,244.8h14.8v73.9H1997V244.8z"/>
<path class="st1" d="M2056.4,315.1c-5.7-3.4-10.1-8.1-13-13.9c-2.9-5.8-4.4-12.3-4.4-19.3c0-7.1,1.4-13.5,4.3-19.3
	c2.9-5.8,7.2-10.4,13-13.9c5.8-3.4,12.7-5.2,20.8-5.2c8,0,14.9,1.7,20.7,5.2c5.8,3.4,10.1,8.1,13,13.9c2.9,5.8,4.4,12.2,4.4,19.2
	c0,7.1-1.5,13.6-4.4,19.4c-2.9,5.8-7.3,10.5-13,13.9c-5.7,3.4-12.6,5.2-20.8,5.2C2069,320.3,2062.1,318.5,2056.4,315.1z
	 M2089.8,305.8c3.5-2.4,6.2-5.7,8-9.8c1.8-4.2,2.8-8.9,2.8-14.2c0-5.2-0.9-9.9-2.8-14c-1.8-4.1-4.5-7.4-8-9.8
	c-3.5-2.4-7.7-3.6-12.6-3.6c-4.9,0-9.2,1.2-12.7,3.6c-3.5,2.4-6.2,5.7-8,9.8c-1.8,4.1-2.7,8.8-2.7,14c0,5.3,0.9,10,2.7,14.2
	c1.8,4.2,4.5,7.4,8,9.8c3.5,2.4,7.7,3.6,12.7,3.6C2082.1,309.4,2086.3,308.2,2089.8,305.8z"/>
<path class="st1" d="M2207.4,244.8v73.9l-13.2,0.1l-37.8-52.2l1.1,24.9v27.2h-14.8v-73.9h13.2l37.8,52.1l-1.1-26.3v-25.8H2207.4z"/>
<path class="st1" d="M2234.1,314.2l3.6-10.3c3.6,1.9,7.2,3.3,10.7,4.2c3.5,0.9,7.2,1.4,11.1,1.4c4.4,0,8.1-0.9,11.1-2.7
	c3-1.8,4.5-4.4,4.5-7.8c0-2.1-0.7-3.9-2.1-5.4c-1.4-1.5-3.2-2.7-5.3-3.7c-2.1-1-5-2.1-8.7-3.4c-4.8-1.7-8.6-3.4-11.6-4.8
	c-2.9-1.5-5.5-3.5-7.6-6.2c-2.1-2.6-3.2-6-3.2-10.1c0-6.9,2.6-12.2,7.7-16s11.9-5.7,20.3-5.7c8.4,0,15.8,2,22.2,5.9l-3.6,10.2
	c-6-3.5-12.1-5.2-18.2-5.2c-4.1,0-7.4,0.9-10,2.6c-2.6,1.7-3.9,4.2-3.9,7.4c0,1.9,0.7,3.5,2,4.9c1.3,1.4,3,2.5,5,3.4
	c2,0.9,4.8,2,8.4,3.4c4.9,1.8,8.9,3.5,12,5.1c3,1.6,5.7,3.7,7.8,6.4c2.2,2.7,3.3,6.2,3.3,10.4c0,7-2.6,12.4-7.9,16.4
	c-5.3,4-12.6,5.9-22,5.9C2249.4,320.3,2240.8,318.2,2234.1,314.2z"/>
<path class="st1" d="M742.9,159.3c-29.7,0-41.2,8.1-50.9,18.7v-13.6h-49.8v153.7H692v-84c0-24.8,12.2-35.3,29.8-35.3
	c21,0,28,7.4,28,28.3v91h49.8V207.2C799.5,181.1,777.6,159.3,742.9,159.3z"/>
<rect x="555.2" y="164.4" class="st1" width="49.8" height="153.7"/>
<rect x="555.2" y="106" class="st1" width="49.8" height="36.9"/>
<path class="st1" d="M453.9,106H344.1v212h52.8v-72.7h57c46.7,0,71.4-31.2,71.4-69.7C525.3,137.2,499.4,106,453.9,106z M446.9,204.3
	h-50.1v-57.2h50.1c16.5,0,28.6,8.6,28.6,28.6C475.5,195.9,463.4,204.3,446.9,204.3z"/>
<path class="st1" d="M980.2,298.1c0-67.7,0-81.6,0-81.6c0-31.7-15.7-57.3-69.3-57.3c-41.4,0-78,13.9-78,55.2h43.5
	c2.5-10.3,11-19.8,28.2-19.8c19.6,0,25.7,7.3,25.7,16.9c0,9.8-9.8,18-53,22.1c-36.8,3.5-50.1,20.3-50.1,46.2
	c0,19.8,13.3,43.3,50.8,43.3c46.3,0,52.3-18.7,52.3-18.7s1.5,8.1,4.5,13.6c20.6,0,49.8,0,49.8,0S980.2,308.9,980.2,298.1z
	 M930.3,263.5c0,21-16,29.5-30.8,29.5c-15.5,0-24.1-6.5-24.1-19.3c0-23.5,32.9-14.8,54.9-26.7V263.5z"/>
</svg>
