<?xml version="1.0" encoding="utf-8"?>
<!-- Generator: Adobe Illustrator 24.3.0, SVG Export Plug-In . SVG Version: 6.00 Build 0)  -->
<svg version="1.1" id="Layer_1" xmlns="http://www.w3.org/2000/svg" xmlns:xlink="http://www.w3.org/1999/xlink" x="0px" y="0px"
	 viewBox="0 0 864.1 354" style="enable-background:new 0 0 864.1 354;" xml:space="preserve">
<style type="text/css">
	.st0{fill:#44C1EB;}
	.st1{fill:#114761;}
</style>
<path class="st0" d="M253,166.9c0,39.4-33.8,74.6-74.6,74.6h-23.1v-28.9h20.5c25.2,0,45.7-20.4,45.7-45.7h-96.8
	c-1.4,0-2.8,0-4.2,0.1c-0.9,0-1.8,0.1-2.8,0.2c-0.7,0.1-1.3,0.1-2,0.2c-41.2,4.5-73.2,39.4-73.2,81.7v68.8h112.9v-38.2v0h23.1
	c62.3,0,112.9-50.5,112.9-112.9H253z"/>
<path class="st1" d="M291.3,143.8c0-62.3-50.5-112.9-112.9-112.9h-136v112.9h37.5V68.4l98.5,0c41.6,0,75.4,33.7,75.4,75.4v0H291.3z"
	/>
<path class="st1" d="M355.2,291.2c2.2,1.3,3.9,3,5,5.2c1.1,2.2,1.7,4.7,1.7,7.4c0,2.8-0.6,5.3-1.7,7.5c-1.1,2.2-2.8,3.9-5,5.2
	c-2.2,1.2-4.9,1.9-8,1.9h-11.1v-29h11.1C350.3,289.3,353,289.9,355.2,291.2z M353.7,311.3c1.6-1.9,2.3-4.4,2.3-7.5
	c0-3.1-0.8-5.6-2.3-7.5c-1.6-1.9-3.8-2.8-6.6-2.8h-5.3v20.6h5.3C350,314.1,352.2,313.2,353.7,311.3z"/>
<path class="st1" d="M372.6,289.3h5.8v29h-5.8V289.3z"/>
<path class="st1" d="M414.7,304.4v12.4c-1.3,0.6-2.8,1.1-4.6,1.5c-1.8,0.4-3.7,0.6-5.7,0.6c-3.4,0-6.2-0.7-8.5-2.1
	c-2.3-1.4-4-3.2-5.2-5.5c-1.2-2.3-1.7-4.8-1.7-7.5c0-2.7,0.6-5.2,1.8-7.5c1.2-2.3,3-4.1,5.4-5.5c2.4-1.4,5.3-2,8.7-2
	c1.8,0,3.5,0.2,5.1,0.7c1.6,0.5,2.9,1.2,4.1,2l-1.5,4c-1-0.7-2.1-1.3-3.4-1.7c-1.3-0.5-2.7-0.7-4.2-0.7c-2.1,0-3.9,0.5-5.4,1.4
	c-1.5,0.9-2.7,2.2-3.5,3.9c-0.8,1.6-1.2,3.5-1.2,5.5c0,2.1,0.4,3.9,1.1,5.6c0.7,1.6,1.8,2.9,3.3,3.9c1.4,0.9,3.2,1.4,5.2,1.4
	c1.4,0,2.9-0.2,4.6-0.5v-9.8H414.7z"/>
<path class="st1" d="M425.8,289.3h5.8v29h-5.8V289.3z"/>
<path class="st1" d="M464.7,293.5h-8.8v24.8h-5.8v-24.8h-8.8v-4.2h23.4V293.5z"/>
<path class="st1" d="M489.3,310.5h-10.7l-2.7,7.8H470l11.2-29.4h5.5l11.2,29.4H492L489.3,310.5z M487.8,306.4l-3.9-11.3l-4,11.3
	H487.8z"/>
<path class="st1" d="M526.4,314.2v4.1h-18.7v-29h5.8v24.8H526.4z"/>
<path class="st1" d="M548.3,316.5l1.4-4c1.4,0.7,2.8,1.3,4.2,1.6c1.4,0.4,2.8,0.5,4.3,0.5c1.7,0,3.2-0.4,4.3-1.1
	c1.2-0.7,1.7-1.7,1.7-3.1c0-0.8-0.3-1.5-0.8-2.1c-0.6-0.6-1.2-1.1-2.1-1.4c-0.8-0.4-2-0.8-3.4-1.3c-1.9-0.7-3.4-1.3-4.5-1.9
	c-1.2-0.6-2.1-1.4-3-2.4c-0.8-1-1.2-2.4-1.2-3.9c0-2.7,1-4.8,3-6.3c2-1.5,4.7-2.2,7.9-2.2c3.3,0,6.2,0.8,8.7,2.3l-1.4,4
	c-2.4-1.4-4.7-2-7.1-2c-1.6,0-2.9,0.3-3.9,1c-1,0.7-1.5,1.6-1.5,2.9c0,0.7,0.3,1.4,0.8,1.9c0.5,0.5,1.2,1,2,1.3
	c0.8,0.4,1.9,0.8,3.3,1.3c1.9,0.7,3.5,1.4,4.7,2c1.2,0.6,2.2,1.4,3.1,2.5c0.9,1.1,1.3,2.4,1.3,4.1c0,2.7-1,4.9-3.1,6.4
	c-2.1,1.5-4.9,2.3-8.6,2.3C554.3,318.9,551,318.1,548.3,316.5z"/>
<path class="st1" d="M585.3,316.9c-2.2-1.3-3.9-3.2-5.1-5.5c-1.2-2.3-1.7-4.8-1.7-7.6c0-2.8,0.6-5.3,1.7-7.6
	c1.1-2.3,2.8-4.1,5.1-5.4c2.3-1.3,5-2,8.2-2c3.2,0,5.9,0.7,8.1,2c2.3,1.4,4,3.2,5.1,5.4c1.2,2.3,1.7,4.8,1.7,7.5
	c0,2.8-0.6,5.3-1.7,7.6c-1.2,2.3-2.8,4.1-5.1,5.5c-2.2,1.4-5,2-8.1,2C590.2,318.9,587.5,318.2,585.3,316.9z M598.4,313.2
	c1.4-0.9,2.4-2.2,3.2-3.9c0.7-1.6,1.1-3.5,1.1-5.6c0-2-0.4-3.9-1.1-5.5c-0.7-1.6-1.8-2.9-3.2-3.8c-1.4-0.9-3-1.4-4.9-1.4
	c-1.9,0-3.6,0.5-5,1.4c-1.4,0.9-2.4,2.2-3.1,3.8c-0.7,1.6-1.1,3.5-1.1,5.5c0,2.1,0.4,3.9,1.1,5.6c0.7,1.6,1.8,2.9,3.1,3.9
	c1.4,0.9,3,1.4,5,1.4C595.3,314.6,597,314.2,598.4,313.2z"/>
<path class="st1" d="M637.8,314.2v4.1h-18.7v-29h5.8v24.8H637.8z"/>
<path class="st1" d="M650.1,315.7c-2.2-2.1-3.3-5-3.3-8.6v-17.8h5.8v17.7c0,2.5,0.6,4.4,1.8,5.7c1.2,1.3,2.9,1.9,5.1,1.9
	c2.2,0,3.9-0.6,5.1-1.9c1.2-1.3,1.8-3.2,1.8-5.7v-17.7h5.8V307c0,3.7-1.1,6.6-3.3,8.7c-2.2,2.1-5.3,3.2-9.4,3.2
	S652.3,317.8,650.1,315.7z"/>
<path class="st1" d="M704.9,293.5H696v24.8h-5.8v-24.8h-8.8v-4.2h23.4V293.5z"/>
<path class="st1" d="M714.6,289.3h5.8v29h-5.8V289.3z"/>
<path class="st1" d="M737.8,316.9c-2.2-1.3-3.9-3.2-5.1-5.5c-1.2-2.3-1.7-4.8-1.7-7.6c0-2.8,0.6-5.3,1.7-7.6
	c1.1-2.3,2.8-4.1,5.1-5.4c2.3-1.3,5-2,8.2-2c3.2,0,5.9,0.7,8.1,2c2.3,1.4,4,3.2,5.1,5.4c1.2,2.3,1.7,4.8,1.7,7.5
	c0,2.8-0.6,5.3-1.7,7.6c-1.2,2.3-2.8,4.1-5.1,5.5c-2.2,1.4-5,2-8.1,2C742.8,318.9,740.1,318.2,737.8,316.9z M751,313.2
	c1.4-0.9,2.4-2.2,3.2-3.9c0.7-1.6,1.1-3.5,1.1-5.6c0-2-0.4-3.9-1.1-5.5c-0.7-1.6-1.8-2.9-3.2-3.8c-1.4-0.9-3-1.4-4.9-1.4
	c-1.9,0-3.6,0.5-5,1.4c-1.4,0.9-2.4,2.2-3.1,3.8c-0.7,1.6-1.1,3.5-1.1,5.5c0,2.1,0.4,3.9,1.1,5.6c0.7,1.6,1.8,2.9,3.1,3.9
	c1.4,0.9,3,1.4,5,1.4C747.9,314.6,749.6,314.2,751,313.2z"/>
<path class="st1" d="M797,289.3v29l-5.2,0l-14.8-20.5l0.4,9.8v10.7h-5.8v-29h5.2l14.8,20.4l-0.4-10.3v-10.1H797z"/>
<path class="st1" d="M807.5,316.5l1.4-4c1.4,0.7,2.8,1.3,4.2,1.6c1.4,0.4,2.8,0.5,4.3,0.5c1.7,0,3.2-0.4,4.3-1.1
	c1.2-0.7,1.7-1.7,1.7-3.1c0-0.8-0.3-1.5-0.8-2.1c-0.6-0.6-1.2-1.1-2.1-1.4c-0.8-0.4-2-0.8-3.4-1.3c-1.9-0.7-3.4-1.3-4.5-1.9
	c-1.2-0.6-2.1-1.4-3-2.4c-0.8-1-1.2-2.4-1.2-3.9c0-2.7,1-4.8,3-6.3c2-1.5,4.7-2.2,7.9-2.2c3.3,0,6.2,0.8,8.7,2.3l-1.4,4
	c-2.4-1.4-4.7-2-7.1-2c-1.6,0-2.9,0.3-3.9,1c-1,0.7-1.5,1.6-1.5,2.9c0,0.7,0.3,1.4,0.8,1.9c0.5,0.5,1.2,1,2,1.3
	c0.8,0.4,1.9,0.8,3.3,1.3c1.9,0.7,3.5,1.4,4.7,2c1.2,0.6,2.2,1.4,3.1,2.5c0.9,1.1,1.3,2.4,1.3,4.1c0,2.7-1,4.9-3.1,6.4
	c-2.1,1.5-4.9,2.3-8.6,2.3C813.5,318.9,810.2,318.1,807.5,316.5z"/>
<path class="st1" d="M642.3,146.9c-22.8,0-31.6,6.2-39.1,14.3v-10.4H565v118.1h38.2v-64.5c0-19.1,9.3-27.1,22.9-27.1
	c16.1,0,21.5,5.7,21.5,21.7v69.9h38.2v-85.1C685.8,163.7,669,146.9,642.3,146.9z"/>
<rect x="498.2" y="150.8" class="st1" width="38.2" height="118.1"/>
<rect x="498.2" y="106" class="st1" width="38.2" height="28.4"/>
<path class="st1" d="M420.4,106h-84.3v162.8h40.5V213h43.8c35.9,0,54.8-24,54.8-53.5C475.2,130,455.4,106,420.4,106z M415,181.5
	h-38.4v-43.9H415c12.7,0,22,6.6,22,22C437,175,427.7,181.5,415,181.5z"/>
<path class="st1" d="M824.6,253.6c0-52,0-62.7,0-62.7c0-24.3-12.1-44-53.2-44c-31.8,0-59.9,10.7-59.9,42.4h33.4
	c1.9-7.9,8.4-15.2,21.6-15.2c15.1,0,19.7,5.6,19.7,13c0,7.5-7.5,13.8-40.7,17c-28.2,2.7-38.4,15.6-38.4,35.5
	c0,15.2,10.2,33.3,39,33.3c35.6,0,40.1-14.3,40.1-14.3s1.2,6.2,3.4,10.4c15.8,0,38.2,0,38.2,0S824.6,261.8,824.6,253.6z M786.3,227
	c0,16.1-12.3,22.7-23.6,22.7c-11.9,0-18.5-5-18.5-14.8c0-18.1,25.3-11.4,42.1-20.5V227z"/>
</svg>
